  0
SECTION
  2
BLOCKS
  0
ENDSEC
  0
SECTION
  2
ENTITIES
  0
LINE
  8
0
 10
469.9
 20
114.3
 11
12.7
 21
114.3
  0
LINE
  8
0
 10
12.7
 20
114.3
 11
12.7
 21
12.7
  0
LINE
  8
0
 10
12.7
 20
12.7
 11
469.9
 21
12.7
  0
LINE
  8
0
 10
469.9
 20
12.7
 11
469.9
 21
114.3
  0
LINE
  8
0
 10
57.0765
 20
77.6117
 11
56.6883
 21
77.6943
  0
LINE
  8
0
 10
56.6883
 20
77.6943
 11
56.3257
 21
77.8557
  0
LINE
  8
0
 10
56.3257
 20
77.8557
 11
56.0046
 21
78.089
  0
LINE
  8
0
 10
56.0046
 20
78.089
 11
55.739
 21
78.384
  0
LINE
  8
0
 10
55.739
 20
78.384
 11
55.5405
 21
78.7277
  0
LINE
  8
0
 10
55.5405
 20
78.7277
 11
55.4178
 21
79.1052
  0
LINE
  8
0
 10
55.4178
 20
79.1052
 11
55.3763
 21
79.5
  0
LINE
  8
0
 10
55.3763
 20
79.5
 11
55.4178
 21
79.8947
  0
LINE
  8
0
 10
55.4178
 20
79.8947
 11
55.5405
 21
80.2722
  0
LINE
  8
0
 10
55.5405
 20
80.2722
 11
55.739
 21
80.616
  0
LINE
  8
0
 10
55.739
 20
80.616
 11
56.0046
 21
80.911
  0
LINE
  8
0
 10
56.0046
 20
80.911
 11
56.3257
 21
81.1443
  0
LINE
  8
0
 10
56.3257
 20
81.1443
 11
56.6883
 21
81.3057
  0
LINE
  8
0
 10
56.6883
 20
81.3057
 11
57.0765
 21
81.3882
  0
LINE
  8
0
 10
57.0765
 20
81.3882
 11
57.4735
 21
81.3882
  0
LINE
  8
0
 10
57.4735
 20
81.3882
 11
57.8617
 21
81.3057
  0
LINE
  8
0
 10
57.8617
 20
81.3057
 11
58.2243
 21
81.1443
  0
LINE
  8
0
 10
58.2243
 20
81.1443
 11
58.5454
 21
80.911
  0
LINE
  8
0
 10
58.5454
 20
80.911
 11
58.811
 21
80.616
  0
LINE
  8
0
 10
58.811
 20
80.616
 11
59.0095
 21
80.2722
  0
LINE
  8
0
 10
59.0095
 20
80.2722
 11
59.1321
 21
79.8947
  0
LINE
  8
0
 10
59.1321
 20
79.8947
 11
59.1736
 21
79.5
  0
LINE
  8
0
 10
59.1736
 20
79.5
 11
59.1321
 21
79.1052
  0
LINE
  8
0
 10
59.1321
 20
79.1052
 11
59.0095
 21
78.7277
  0
LINE
  8
0
 10
59.0095
 20
78.7277
 11
58.811
 21
78.384
  0
LINE
  8
0
 10
58.811
 20
78.384
 11
58.5454
 21
78.089
  0
LINE
  8
0
 10
58.5454
 20
78.089
 11
58.2243
 21
77.8557
  0
LINE
  8
0
 10
58.2243
 20
77.8557
 11
57.8617
 21
77.6943
  0
LINE
  8
0
 10
57.8617
 20
77.6943
 11
57.4735
 21
77.6117
  0
LINE
  8
0
 10
57.4735
 20
77.6117
 11
57.0765
 21
77.6117
  0
LINE
  8
0
 10
82.2265
 20
77.6117
 11
81.8383
 21
77.6943
  0
LINE
  8
0
 10
81.8383
 20
77.6943
 11
81.4757
 21
77.8557
  0
LINE
  8
0
 10
81.4757
 20
77.8557
 11
81.1546
 21
78.089
  0
LINE
  8
0
 10
81.1546
 20
78.089
 11
80.889
 21
78.384
  0
LINE
  8
0
 10
80.889
 20
78.384
 11
80.6905
 21
78.7277
  0
LINE
  8
0
 10
80.6905
 20
78.7277
 11
80.5678
 21
79.1052
  0
LINE
  8
0
 10
80.5678
 20
79.1052
 11
80.5264
 21
79.5
  0
LINE
  8
0
 10
80.5264
 20
79.5
 11
80.5678
 21
79.8947
  0
LINE
  8
0
 10
80.5678
 20
79.8947
 11
80.6905
 21
80.2722
  0
LINE
  8
0
 10
80.6905
 20
80.2722
 11
80.889
 21
80.616
  0
LINE
  8
0
 10
80.889
 20
80.616
 11
81.1546
 21
80.911
  0
LINE
  8
0
 10
81.1546
 20
80.911
 11
81.4757
 21
81.1443
  0
LINE
  8
0
 10
81.4757
 20
81.1443
 11
81.8383
 21
81.3057
  0
LINE
  8
0
 10
81.8383
 20
81.3057
 11
82.2265
 21
81.3882
  0
LINE
  8
0
 10
82.2265
 20
81.3882
 11
82.6235
 21
81.3882
  0
LINE
  8
0
 10
82.6235
 20
81.3882
 11
83.0117
 21
81.3057
  0
LINE
  8
0
 10
83.0117
 20
81.3057
 11
83.3743
 21
81.1443
  0
LINE
  8
0
 10
83.3743
 20
81.1443
 11
83.6954
 21
80.911
  0
LINE
  8
0
 10
83.6954
 20
80.911
 11
83.961
 21
80.616
  0
LINE
  8
0
 10
83.961
 20
80.616
 11
84.1595
 21
80.2722
  0
LINE
  8
0
 10
84.1595
 20
80.2722
 11
84.2822
 21
79.8947
  0
LINE
  8
0
 10
84.2822
 20
79.8947
 11
84.3236
 21
79.5
  0
LINE
  8
0
 10
84.3236
 20
79.5
 11
84.2822
 21
79.1052
  0
LINE
  8
0
 10
84.2822
 20
79.1052
 11
84.1595
 21
78.7277
  0
LINE
  8
0
 10
84.1595
 20
78.7277
 11
83.961
 21
78.384
  0
LINE
  8
0
 10
83.961
 20
78.384
 11
83.6954
 21
78.089
  0
LINE
  8
0
 10
83.6954
 20
78.089
 11
83.3743
 21
77.8557
  0
LINE
  8
0
 10
83.3743
 20
77.8557
 11
83.0117
 21
77.6943
  0
LINE
  8
0
 10
83.0117
 20
77.6943
 11
82.6235
 21
77.6117
  0
LINE
  8
0
 10
82.6235
 20
77.6117
 11
82.2265
 21
77.6117
  0
LINE
  8
0
 10
114.227
 20
77.6117
 11
113.838
 21
77.6943
  0
LINE
  8
0
 10
113.838
 20
77.6943
 11
113.476
 21
77.8557
  0
LINE
  8
0
 10
113.476
 20
77.8557
 11
113.155
 21
78.089
  0
LINE
  8
0
 10
113.155
 20
78.089
 11
112.889
 21
78.384
  0
LINE
  8
0
 10
112.889
 20
78.384
 11
112.69
 21
78.7277
  0
LINE
  8
0
 10
112.69
 20
78.7277
 11
112.568
 21
79.1052
  0
LINE
  8
0
 10
112.568
 20
79.1052
 11
112.526
 21
79.5
  0
LINE
  8
0
 10
112.526
 20
79.5
 11
112.568
 21
79.8947
  0
LINE
  8
0
 10
112.568
 20
79.8947
 11
112.69
 21
80.2722
  0
LINE
  8
0
 10
112.69
 20
80.2722
 11
112.889
 21
80.616
  0
LINE
  8
0
 10
112.889
 20
80.616
 11
113.155
 21
80.911
  0
LINE
  8
0
 10
113.155
 20
80.911
 11
113.476
 21
81.1443
  0
LINE
  8
0
 10
113.476
 20
81.1443
 11
113.838
 21
81.3057
  0
LINE
  8
0
 10
113.838
 20
81.3057
 11
114.227
 21
81.3882
  0
LINE
  8
0
 10
114.227
 20
81.3882
 11
114.623
 21
81.3882
  0
LINE
  8
0
 10
114.623
 20
81.3882
 11
115.012
 21
81.3057
  0
LINE
  8
0
 10
115.012
 20
81.3057
 11
115.374
 21
81.1443
  0
LINE
  8
0
 10
115.374
 20
81.1443
 11
115.695
 21
80.911
  0
LINE
  8
0
 10
115.695
 20
80.911
 11
115.961
 21
80.616
  0
LINE
  8
0
 10
115.961
 20
80.616
 11
116.159
 21
80.2722
  0
LINE
  8
0
 10
116.159
 20
80.2722
 11
116.282
 21
79.8947
  0
LINE
  8
0
 10
116.282
 20
79.8947
 11
116.324
 21
79.5
  0
LINE
  8
0
 10
116.324
 20
79.5
 11
116.282
 21
79.1052
  0
LINE
  8
0
 10
116.282
 20
79.1052
 11
116.159
 21
78.7277
  0
LINE
  8
0
 10
116.159
 20
78.7277
 11
115.961
 21
78.384
  0
LINE
  8
0
 10
115.961
 20
78.384
 11
115.695
 21
78.089
  0
LINE
  8
0
 10
115.695
 20
78.089
 11
115.374
 21
77.8557
  0
LINE
  8
0
 10
115.374
 20
77.8557
 11
115.012
 21
77.6943
  0
LINE
  8
0
 10
115.012
 20
77.6943
 11
114.623
 21
77.6117
  0
LINE
  8
0
 10
114.623
 20
77.6117
 11
114.227
 21
77.6117
  0
LINE
  8
0
 10
139.377
 20
77.6117
 11
138.988
 21
77.6943
  0
LINE
  8
0
 10
138.988
 20
77.6943
 11
138.626
 21
77.8557
  0
LINE
  8
0
 10
138.626
 20
77.8557
 11
138.305
 21
78.089
  0
LINE
  8
0
 10
138.305
 20
78.089
 11
138.039
 21
78.384
  0
LINE
  8
0
 10
138.039
 20
78.384
 11
137.841
 21
78.7277
  0
LINE
  8
0
 10
137.841
 20
78.7277
 11
137.718
 21
79.1052
  0
LINE
  8
0
 10
137.718
 20
79.1052
 11
137.676
 21
79.5
  0
LINE
  8
0
 10
137.676
 20
79.5
 11
137.718
 21
79.8947
  0
LINE
  8
0
 10
137.718
 20
79.8947
 11
137.841
 21
80.2722
  0
LINE
  8
0
 10
137.841
 20
80.2722
 11
138.039
 21
80.616
  0
LINE
  8
0
 10
138.039
 20
80.616
 11
138.305
 21
80.911
  0
LINE
  8
0
 10
138.305
 20
80.911
 11
138.626
 21
81.1443
  0
LINE
  8
0
 10
138.626
 20
81.1443
 11
138.988
 21
81.3057
  0
LINE
  8
0
 10
138.988
 20
81.3057
 11
139.377
 21
81.3882
  0
LINE
  8
0
 10
139.377
 20
81.3882
 11
139.773
 21
81.3882
  0
LINE
  8
0
 10
139.773
 20
81.3882
 11
140.162
 21
81.3057
  0
LINE
  8
0
 10
140.162
 20
81.3057
 11
140.524
 21
81.1443
  0
LINE
  8
0
 10
140.524
 20
81.1443
 11
140.845
 21
80.911
  0
LINE
  8
0
 10
140.845
 20
80.911
 11
141.111
 21
80.616
  0
LINE
  8
0
 10
141.111
 20
80.616
 11
141.31
 21
80.2722
  0
LINE
  8
0
 10
141.31
 20
80.2722
 11
141.432
 21
79.8947
  0
LINE
  8
0
 10
141.432
 20
79.8947
 11
141.474
 21
79.5
  0
LINE
  8
0
 10
141.474
 20
79.5
 11
141.432
 21
79.1052
  0
LINE
  8
0
 10
141.432
 20
79.1052
 11
141.31
 21
78.7277
  0
LINE
  8
0
 10
141.31
 20
78.7277
 11
141.111
 21
78.384
  0
LINE
  8
0
 10
141.111
 20
78.384
 11
140.845
 21
78.089
  0
LINE
  8
0
 10
140.845
 20
78.089
 11
140.524
 21
77.8557
  0
LINE
  8
0
 10
140.524
 20
77.8557
 11
140.162
 21
77.6943
  0
LINE
  8
0
 10
140.162
 20
77.6943
 11
139.773
 21
77.6117
  0
LINE
  8
0
 10
139.773
 20
77.6117
 11
139.377
 21
77.6117
  0
LINE
  8
0
 10
25.0765
 20
77.6117
 11
24.6883
 21
77.6943
  0
LINE
  8
0
 10
24.6883
 20
77.6943
 11
24.3257
 21
77.8557
  0
LINE
  8
0
 10
24.3257
 20
77.8557
 11
24.0046
 21
78.089
  0
LINE
  8
0
 10
24.0046
 20
78.089
 11
23.739
 21
78.384
  0
LINE
  8
0
 10
23.739
 20
78.384
 11
23.5405
 21
78.7277
  0
LINE
  8
0
 10
23.5405
 20
78.7277
 11
23.4178
 21
79.1052
  0
LINE
  8
0
 10
23.4178
 20
79.1052
 11
23.3764
 21
79.5
  0
LINE
  8
0
 10
23.3764
 20
79.5
 11
23.4178
 21
79.8947
  0
LINE
  8
0
 10
23.4178
 20
79.8947
 11
23.5405
 21
80.2722
  0
LINE
  8
0
 10
23.5405
 20
80.2722
 11
23.739
 21
80.616
  0
LINE
  8
0
 10
23.739
 20
80.616
 11
24.0046
 21
80.911
  0
LINE
  8
0
 10
24.0046
 20
80.911
 11
24.3257
 21
81.1443
  0
LINE
  8
0
 10
24.3257
 20
81.1443
 11
24.6883
 21
81.3057
  0
LINE
  8
0
 10
24.6883
 20
81.3057
 11
25.0765
 21
81.3882
  0
LINE
  8
0
 10
25.0765
 20
81.3882
 11
25.4735
 21
81.3882
  0
LINE
  8
0
 10
25.4735
 20
81.3882
 11
25.8617
 21
81.3057
  0
LINE
  8
0
 10
25.8617
 20
81.3057
 11
26.2243
 21
81.1443
  0
LINE
  8
0
 10
26.2243
 20
81.1443
 11
26.5454
 21
80.911
  0
LINE
  8
0
 10
26.5454
 20
80.911
 11
26.811
 21
80.616
  0
LINE
  8
0
 10
26.811
 20
80.616
 11
27.0095
 21
80.2722
  0
LINE
  8
0
 10
27.0095
 20
80.2722
 11
27.1322
 21
79.8947
  0
LINE
  8
0
 10
27.1322
 20
79.8947
 11
27.1736
 21
79.5
  0
LINE
  8
0
 10
27.1736
 20
79.5
 11
27.1322
 21
79.1052
  0
LINE
  8
0
 10
27.1322
 20
79.1052
 11
27.0095
 21
78.7277
  0
LINE
  8
0
 10
27.0095
 20
78.7277
 11
26.811
 21
78.384
  0
LINE
  8
0
 10
26.811
 20
78.384
 11
26.5454
 21
78.089
  0
LINE
  8
0
 10
26.5454
 20
78.089
 11
26.2243
 21
77.8557
  0
LINE
  8
0
 10
26.2243
 20
77.8557
 11
25.8617
 21
77.6943
  0
LINE
  8
0
 10
25.8617
 20
77.6943
 11
25.4735
 21
77.6117
  0
LINE
  8
0
 10
25.4735
 20
77.6117
 11
25.0765
 21
77.6117
  0
LINE
  8
0
 10
171.377
 20
77.6117
 11
170.988
 21
77.6943
  0
LINE
  8
0
 10
170.988
 20
77.6943
 11
170.626
 21
77.8557
  0
LINE
  8
0
 10
170.626
 20
77.8557
 11
170.305
 21
78.089
  0
LINE
  8
0
 10
170.305
 20
78.089
 11
170.039
 21
78.384
  0
LINE
  8
0
 10
170.039
 20
78.384
 11
169.84
 21
78.7277
  0
LINE
  8
0
 10
169.84
 20
78.7277
 11
169.718
 21
79.1052
  0
LINE
  8
0
 10
169.718
 20
79.1052
 11
169.676
 21
79.5
  0
LINE
  8
0
 10
169.676
 20
79.5
 11
169.718
 21
79.8947
  0
LINE
  8
0
 10
169.718
 20
79.8947
 11
169.84
 21
80.2722
  0
LINE
  8
0
 10
169.84
 20
80.2722
 11
170.039
 21
80.616
  0
LINE
  8
0
 10
170.039
 20
80.616
 11
170.305
 21
80.911
  0
LINE
  8
0
 10
170.305
 20
80.911
 11
170.626
 21
81.1443
  0
LINE
  8
0
 10
170.626
 20
81.1443
 11
170.988
 21
81.3057
  0
LINE
  8
0
 10
170.988
 20
81.3057
 11
171.377
 21
81.3882
  0
LINE
  8
0
 10
171.377
 20
81.3882
 11
171.773
 21
81.3882
  0
LINE
  8
0
 10
171.773
 20
81.3882
 11
172.162
 21
81.3057
  0
LINE
  8
0
 10
172.162
 20
81.3057
 11
172.524
 21
81.1443
  0
LINE
  8
0
 10
172.524
 20
81.1443
 11
172.845
 21
80.911
  0
LINE
  8
0
 10
172.845
 20
80.911
 11
173.111
 21
80.616
  0
LINE
  8
0
 10
173.111
 20
80.616
 11
173.309
 21
80.2722
  0
LINE
  8
0
 10
173.309
 20
80.2722
 11
173.432
 21
79.8947
  0
LINE
  8
0
 10
173.432
 20
79.8947
 11
173.474
 21
79.5
  0
LINE
  8
0
 10
173.474
 20
79.5
 11
173.432
 21
79.1052
  0
LINE
  8
0
 10
173.432
 20
79.1052
 11
173.309
 21
78.7277
  0
LINE
  8
0
 10
173.309
 20
78.7277
 11
173.111
 21
78.384
  0
LINE
  8
0
 10
173.111
 20
78.384
 11
172.845
 21
78.089
  0
LINE
  8
0
 10
172.845
 20
78.089
 11
172.524
 21
77.8557
  0
LINE
  8
0
 10
172.524
 20
77.8557
 11
172.162
 21
77.6943
  0
LINE
  8
0
 10
172.162
 20
77.6943
 11
171.773
 21
77.6117
  0
LINE
  8
0
 10
171.773
 20
77.6117
 11
171.377
 21
77.6117
  0
LINE
  8
0
 10
196.527
 20
77.6117
 11
196.138
 21
77.6943
  0
LINE
  8
0
 10
196.138
 20
77.6943
 11
195.776
 21
77.8557
  0
LINE
  8
0
 10
195.776
 20
77.8557
 11
195.455
 21
78.089
  0
LINE
  8
0
 10
195.455
 20
78.089
 11
195.189
 21
78.384
  0
LINE
  8
0
 10
195.189
 20
78.384
 11
194.99
 21
78.7277
  0
LINE
  8
0
 10
194.99
 20
78.7277
 11
194.868
 21
79.1052
  0
LINE
  8
0
 10
194.868
 20
79.1052
 11
194.826
 21
79.5
  0
LINE
  8
0
 10
194.826
 20
79.5
 11
194.868
 21
79.8947
  0
LINE
  8
0
 10
194.868
 20
79.8947
 11
194.99
 21
80.2722
  0
LINE
  8
0
 10
194.99
 20
80.2722
 11
195.189
 21
80.616
  0
LINE
  8
0
 10
195.189
 20
80.616
 11
195.455
 21
80.911
  0
LINE
  8
0
 10
195.455
 20
80.911
 11
195.776
 21
81.1443
  0
LINE
  8
0
 10
195.776
 20
81.1443
 11
196.138
 21
81.3057
  0
LINE
  8
0
 10
196.138
 20
81.3057
 11
196.527
 21
81.3882
  0
LINE
  8
0
 10
196.527
 20
81.3882
 11
196.923
 21
81.3882
  0
LINE
  8
0
 10
196.923
 20
81.3882
 11
197.312
 21
81.3057
  0
LINE
  8
0
 10
197.312
 20
81.3057
 11
197.674
 21
81.1443
  0
LINE
  8
0
 10
197.674
 20
81.1443
 11
197.995
 21
80.911
  0
LINE
  8
0
 10
197.995
 20
80.911
 11
198.261
 21
80.616
  0
LINE
  8
0
 10
198.261
 20
80.616
 11
198.46
 21
80.2722
  0
LINE
  8
0
 10
198.46
 20
80.2722
 11
198.582
 21
79.8947
  0
LINE
  8
0
 10
198.582
 20
79.8947
 11
198.624
 21
79.5
  0
LINE
  8
0
 10
198.624
 20
79.5
 11
198.582
 21
79.1052
  0
LINE
  8
0
 10
198.582
 20
79.1052
 11
198.46
 21
78.7277
  0
LINE
  8
0
 10
198.46
 20
78.7277
 11
198.261
 21
78.384
  0
LINE
  8
0
 10
198.261
 20
78.384
 11
197.995
 21
78.089
  0
LINE
  8
0
 10
197.995
 20
78.089
 11
197.674
 21
77.8557
  0
LINE
  8
0
 10
197.674
 20
77.8557
 11
197.312
 21
77.6943
  0
LINE
  8
0
 10
197.312
 20
77.6943
 11
196.923
 21
77.6117
  0
LINE
  8
0
 10
196.923
 20
77.6117
 11
196.527
 21
77.6117
  0
LINE
  8
0
 10
228.527
 20
77.6117
 11
228.138
 21
77.6943
  0
LINE
  8
0
 10
228.138
 20
77.6943
 11
227.776
 21
77.8557
  0
LINE
  8
0
 10
227.776
 20
77.8557
 11
227.455
 21
78.089
  0
LINE
  8
0
 10
227.455
 20
78.089
 11
227.189
 21
78.384
  0
LINE
  8
0
 10
227.189
 20
78.384
 11
226.99
 21
78.7277
  0
LINE
  8
0
 10
226.99
 20
78.7277
 11
226.868
 21
79.1052
  0
LINE
  8
0
 10
226.868
 20
79.1052
 11
226.826
 21
79.5
  0
LINE
  8
0
 10
226.826
 20
79.5
 11
226.868
 21
79.8947
  0
LINE
  8
0
 10
226.868
 20
79.8947
 11
226.99
 21
80.2722
  0
LINE
  8
0
 10
226.99
 20
80.2722
 11
227.189
 21
80.616
  0
LINE
  8
0
 10
227.189
 20
80.616
 11
227.455
 21
80.911
  0
LINE
  8
0
 10
227.455
 20
80.911
 11
227.776
 21
81.1443
  0
LINE
  8
0
 10
227.776
 20
81.1443
 11
228.138
 21
81.3057
  0
LINE
  8
0
 10
228.138
 20
81.3057
 11
228.527
 21
81.3882
  0
LINE
  8
0
 10
228.527
 20
81.3882
 11
228.923
 21
81.3882
  0
LINE
  8
0
 10
228.923
 20
81.3882
 11
229.312
 21
81.3057
  0
LINE
  8
0
 10
229.312
 20
81.3057
 11
229.674
 21
81.1443
  0
LINE
  8
0
 10
229.674
 20
81.1443
 11
229.995
 21
80.911
  0
LINE
  8
0
 10
229.995
 20
80.911
 11
230.261
 21
80.616
  0
LINE
  8
0
 10
230.261
 20
80.616
 11
230.459
 21
80.2722
  0
LINE
  8
0
 10
230.459
 20
80.2722
 11
230.582
 21
79.8947
  0
LINE
  8
0
 10
230.582
 20
79.8947
 11
230.624
 21
79.5
  0
LINE
  8
0
 10
230.624
 20
79.5
 11
230.582
 21
79.1052
  0
LINE
  8
0
 10
230.582
 20
79.1052
 11
230.459
 21
78.7277
  0
LINE
  8
0
 10
230.459
 20
78.7277
 11
230.261
 21
78.384
  0
LINE
  8
0
 10
230.261
 20
78.384
 11
229.995
 21
78.089
  0
LINE
  8
0
 10
229.995
 20
78.089
 11
229.674
 21
77.8557
  0
LINE
  8
0
 10
229.674
 20
77.8557
 11
229.312
 21
77.6943
  0
LINE
  8
0
 10
229.312
 20
77.6943
 11
228.923
 21
77.6117
  0
LINE
  8
0
 10
228.923
 20
77.6117
 11
228.527
 21
77.6117
  0
LINE
  8
0
 10
285.677
 20
77.6117
 11
285.288
 21
77.6943
  0
LINE
  8
0
 10
285.288
 20
77.6943
 11
284.926
 21
77.8557
  0
LINE
  8
0
 10
284.926
 20
77.8557
 11
284.605
 21
78.089
  0
LINE
  8
0
 10
284.605
 20
78.089
 11
284.339
 21
78.384
  0
LINE
  8
0
 10
284.339
 20
78.384
 11
284.14
 21
78.7277
  0
LINE
  8
0
 10
284.14
 20
78.7277
 11
284.018
 21
79.1052
  0
LINE
  8
0
 10
284.018
 20
79.1052
 11
283.976
 21
79.5
  0
LINE
  8
0
 10
283.976
 20
79.5
 11
284.018
 21
79.8947
  0
LINE
  8
0
 10
284.018
 20
79.8947
 11
284.14
 21
80.2722
  0
LINE
  8
0
 10
284.14
 20
80.2722
 11
284.339
 21
80.616
  0
LINE
  8
0
 10
284.339
 20
80.616
 11
284.605
 21
80.911
  0
LINE
  8
0
 10
284.605
 20
80.911
 11
284.926
 21
81.1443
  0
LINE
  8
0
 10
284.926
 20
81.1443
 11
285.288
 21
81.3057
  0
LINE
  8
0
 10
285.288
 20
81.3057
 11
285.677
 21
81.3882
  0
LINE
  8
0
 10
285.677
 20
81.3882
 11
286.073
 21
81.3882
  0
LINE
  8
0
 10
286.073
 20
81.3882
 11
286.462
 21
81.3057
  0
LINE
  8
0
 10
286.462
 20
81.3057
 11
286.824
 21
81.1443
  0
LINE
  8
0
 10
286.824
 20
81.1443
 11
287.145
 21
80.911
  0
LINE
  8
0
 10
287.145
 20
80.911
 11
287.411
 21
80.616
  0
LINE
  8
0
 10
287.411
 20
80.616
 11
287.609
 21
80.2722
  0
LINE
  8
0
 10
287.609
 20
80.2722
 11
287.732
 21
79.8947
  0
LINE
  8
0
 10
287.732
 20
79.8947
 11
287.774
 21
79.5
  0
LINE
  8
0
 10
287.774
 20
79.5
 11
287.732
 21
79.1052
  0
LINE
  8
0
 10
287.732
 20
79.1052
 11
287.609
 21
78.7277
  0
LINE
  8
0
 10
287.609
 20
78.7277
 11
287.411
 21
78.384
  0
LINE
  8
0
 10
287.411
 20
78.384
 11
287.145
 21
78.089
  0
LINE
  8
0
 10
287.145
 20
78.089
 11
286.824
 21
77.8557
  0
LINE
  8
0
 10
286.824
 20
77.8557
 11
286.462
 21
77.6943
  0
LINE
  8
0
 10
286.462
 20
77.6943
 11
286.073
 21
77.6117
  0
LINE
  8
0
 10
286.073
 20
77.6117
 11
285.677
 21
77.6117
  0
LINE
  8
0
 10
310.827
 20
77.6117
 11
310.438
 21
77.6943
  0
LINE
  8
0
 10
310.438
 20
77.6943
 11
310.076
 21
77.8557
  0
LINE
  8
0
 10
310.076
 20
77.8557
 11
309.755
 21
78.089
  0
LINE
  8
0
 10
309.755
 20
78.089
 11
309.489
 21
78.384
  0
LINE
  8
0
 10
309.489
 20
78.384
 11
309.29
 21
78.7277
  0
LINE
  8
0
 10
309.29
 20
78.7277
 11
309.168
 21
79.1052
  0
LINE
  8
0
 10
309.168
 20
79.1052
 11
309.126
 21
79.5
  0
LINE
  8
0
 10
309.126
 20
79.5
 11
309.168
 21
79.8947
  0
LINE
  8
0
 10
309.168
 20
79.8947
 11
309.29
 21
80.2722
  0
LINE
  8
0
 10
309.29
 20
80.2722
 11
309.489
 21
80.616
  0
LINE
  8
0
 10
309.489
 20
80.616
 11
309.755
 21
80.911
  0
LINE
  8
0
 10
309.755
 20
80.911
 11
310.076
 21
81.1443
  0
LINE
  8
0
 10
310.076
 20
81.1443
 11
310.438
 21
81.3057
  0
LINE
  8
0
 10
310.438
 20
81.3057
 11
310.827
 21
81.3882
  0
LINE
  8
0
 10
310.827
 20
81.3882
 11
311.223
 21
81.3882
  0
LINE
  8
0
 10
311.223
 20
81.3882
 11
311.612
 21
81.3057
  0
LINE
  8
0
 10
311.612
 20
81.3057
 11
311.974
 21
81.1443
  0
LINE
  8
0
 10
311.974
 20
81.1443
 11
312.295
 21
80.911
  0
LINE
  8
0
 10
312.295
 20
80.911
 11
312.561
 21
80.616
  0
LINE
  8
0
 10
312.561
 20
80.616
 11
312.76
 21
80.2722
  0
LINE
  8
0
 10
312.76
 20
80.2722
 11
312.882
 21
79.8947
  0
LINE
  8
0
 10
312.882
 20
79.8947
 11
312.924
 21
79.5
  0
LINE
  8
0
 10
312.924
 20
79.5
 11
312.882
 21
79.1052
  0
LINE
  8
0
 10
312.882
 20
79.1052
 11
312.76
 21
78.7277
  0
LINE
  8
0
 10
312.76
 20
78.7277
 11
312.561
 21
78.384
  0
LINE
  8
0
 10
312.561
 20
78.384
 11
312.295
 21
78.089
  0
LINE
  8
0
 10
312.295
 20
78.089
 11
311.974
 21
77.8557
  0
LINE
  8
0
 10
311.974
 20
77.8557
 11
311.612
 21
77.6943
  0
LINE
  8
0
 10
311.612
 20
77.6943
 11
311.223
 21
77.6117
  0
LINE
  8
0
 10
311.223
 20
77.6117
 11
310.827
 21
77.6117
  0
LINE
  8
0
 10
342.827
 20
77.6117
 11
342.438
 21
77.6943
  0
LINE
  8
0
 10
342.438
 20
77.6943
 11
342.076
 21
77.8557
  0
LINE
  8
0
 10
342.076
 20
77.8557
 11
341.755
 21
78.089
  0
LINE
  8
0
 10
341.755
 20
78.089
 11
341.489
 21
78.384
  0
LINE
  8
0
 10
341.489
 20
78.384
 11
341.29
 21
78.7277
  0
LINE
  8
0
 10
341.29
 20
78.7277
 11
341.168
 21
79.1052
  0
LINE
  8
0
 10
341.168
 20
79.1052
 11
341.126
 21
79.5
  0
LINE
  8
0
 10
341.126
 20
79.5
 11
341.168
 21
79.8947
  0
LINE
  8
0
 10
341.168
 20
79.8947
 11
341.29
 21
80.2722
  0
LINE
  8
0
 10
341.29
 20
80.2722
 11
341.489
 21
80.616
  0
LINE
  8
0
 10
341.489
 20
80.616
 11
341.755
 21
80.911
  0
LINE
  8
0
 10
341.755
 20
80.911
 11
342.076
 21
81.1443
  0
LINE
  8
0
 10
342.076
 20
81.1443
 11
342.438
 21
81.3057
  0
LINE
  8
0
 10
342.438
 20
81.3057
 11
342.827
 21
81.3882
  0
LINE
  8
0
 10
342.827
 20
81.3882
 11
343.223
 21
81.3882
  0
LINE
  8
0
 10
343.223
 20
81.3882
 11
343.612
 21
81.3057
  0
LINE
  8
0
 10
343.612
 20
81.3057
 11
343.974
 21
81.1443
  0
LINE
  8
0
 10
343.974
 20
81.1443
 11
344.295
 21
80.911
  0
LINE
  8
0
 10
344.295
 20
80.911
 11
344.561
 21
80.616
  0
LINE
  8
0
 10
344.561
 20
80.616
 11
344.759
 21
80.2722
  0
LINE
  8
0
 10
344.759
 20
80.2722
 11
344.882
 21
79.8947
  0
LINE
  8
0
 10
344.882
 20
79.8947
 11
344.924
 21
79.5
  0
LINE
  8
0
 10
344.924
 20
79.5
 11
344.882
 21
79.1052
  0
LINE
  8
0
 10
344.882
 20
79.1052
 11
344.759
 21
78.7277
  0
LINE
  8
0
 10
344.759
 20
78.7277
 11
344.561
 21
78.384
  0
LINE
  8
0
 10
344.561
 20
78.384
 11
344.295
 21
78.089
  0
LINE
  8
0
 10
344.295
 20
78.089
 11
343.974
 21
77.8557
  0
LINE
  8
0
 10
343.974
 20
77.8557
 11
343.612
 21
77.6943
  0
LINE
  8
0
 10
343.612
 20
77.6943
 11
343.223
 21
77.6117
  0
LINE
  8
0
 10
343.223
 20
77.6117
 11
342.827
 21
77.6117
  0
LINE
  8
0
 10
367.977
 20
77.6117
 11
367.588
 21
77.6943
  0
LINE
  8
0
 10
367.588
 20
77.6943
 11
367.226
 21
77.8557
  0
LINE
  8
0
 10
367.226
 20
77.8557
 11
366.905
 21
78.089
  0
LINE
  8
0
 10
366.905
 20
78.089
 11
366.639
 21
78.384
  0
LINE
  8
0
 10
366.639
 20
78.384
 11
366.44
 21
78.7277
  0
LINE
  8
0
 10
366.44
 20
78.7277
 11
366.318
 21
79.1052
  0
LINE
  8
0
 10
366.318
 20
79.1052
 11
366.276
 21
79.5
  0
LINE
  8
0
 10
366.276
 20
79.5
 11
366.318
 21
79.8947
  0
LINE
  8
0
 10
366.318
 20
79.8947
 11
366.44
 21
80.2722
  0
LINE
  8
0
 10
366.44
 20
80.2722
 11
366.639
 21
80.616
  0
LINE
  8
0
 10
366.639
 20
80.616
 11
366.905
 21
80.911
  0
LINE
  8
0
 10
366.905
 20
80.911
 11
367.226
 21
81.1443
  0
LINE
  8
0
 10
367.226
 20
81.1443
 11
367.588
 21
81.3057
  0
LINE
  8
0
 10
367.588
 20
81.3057
 11
367.977
 21
81.3882
  0
LINE
  8
0
 10
367.977
 20
81.3882
 11
368.373
 21
81.3882
  0
LINE
  8
0
 10
368.373
 20
81.3882
 11
368.762
 21
81.3057
  0
LINE
  8
0
 10
368.762
 20
81.3057
 11
369.124
 21
81.1443
  0
LINE
  8
0
 10
369.124
 20
81.1443
 11
369.445
 21
80.911
  0
LINE
  8
0
 10
369.445
 20
80.911
 11
369.711
 21
80.616
  0
LINE
  8
0
 10
369.711
 20
80.616
 11
369.91
 21
80.2722
  0
LINE
  8
0
 10
369.91
 20
80.2722
 11
370.032
 21
79.8947
  0
LINE
  8
0
 10
370.032
 20
79.8947
 11
370.074
 21
79.5
  0
LINE
  8
0
 10
370.074
 20
79.5
 11
370.032
 21
79.1052
  0
LINE
  8
0
 10
370.032
 20
79.1052
 11
369.91
 21
78.7277
  0
LINE
  8
0
 10
369.91
 20
78.7277
 11
369.711
 21
78.384
  0
LINE
  8
0
 10
369.711
 20
78.384
 11
369.445
 21
78.089
  0
LINE
  8
0
 10
369.445
 20
78.089
 11
369.124
 21
77.8557
  0
LINE
  8
0
 10
369.124
 20
77.8557
 11
368.762
 21
77.6943
  0
LINE
  8
0
 10
368.762
 20
77.6943
 11
368.373
 21
77.6117
  0
LINE
  8
0
 10
368.373
 20
77.6117
 11
367.977
 21
77.6117
  0
LINE
  8
0
 10
399.977
 20
77.6117
 11
399.588
 21
77.6943
  0
LINE
  8
0
 10
399.588
 20
77.6943
 11
399.226
 21
77.8557
  0
LINE
  8
0
 10
399.226
 20
77.8557
 11
398.905
 21
78.089
  0
LINE
  8
0
 10
398.905
 20
78.089
 11
398.639
 21
78.384
  0
LINE
  8
0
 10
398.639
 20
78.384
 11
398.44
 21
78.7277
  0
LINE
  8
0
 10
398.44
 20
78.7277
 11
398.318
 21
79.1052
  0
LINE
  8
0
 10
398.318
 20
79.1052
 11
398.276
 21
79.5
  0
LINE
  8
0
 10
398.276
 20
79.5
 11
398.318
 21
79.8947
  0
LINE
  8
0
 10
398.318
 20
79.8947
 11
398.44
 21
80.2722
  0
LINE
  8
0
 10
398.44
 20
80.2722
 11
398.639
 21
80.616
  0
LINE
  8
0
 10
398.639
 20
80.616
 11
398.905
 21
80.911
  0
LINE
  8
0
 10
398.905
 20
80.911
 11
399.226
 21
81.1443
  0
LINE
  8
0
 10
399.226
 20
81.1443
 11
399.588
 21
81.3057
  0
LINE
  8
0
 10
399.588
 20
81.3057
 11
399.977
 21
81.3882
  0
LINE
  8
0
 10
399.977
 20
81.3882
 11
400.373
 21
81.3882
  0
LINE
  8
0
 10
400.373
 20
81.3882
 11
400.762
 21
81.3057
  0
LINE
  8
0
 10
400.762
 20
81.3057
 11
401.124
 21
81.1443
  0
LINE
  8
0
 10
401.124
 20
81.1443
 11
401.445
 21
80.911
  0
LINE
  8
0
 10
401.445
 20
80.911
 11
401.711
 21
80.616
  0
LINE
  8
0
 10
401.711
 20
80.616
 11
401.909
 21
80.2722
  0
LINE
  8
0
 10
401.909
 20
80.2722
 11
402.032
 21
79.8947
  0
LINE
  8
0
 10
402.032
 20
79.8947
 11
402.074
 21
79.5
  0
LINE
  8
0
 10
402.074
 20
79.5
 11
402.032
 21
79.1052
  0
LINE
  8
0
 10
402.032
 20
79.1052
 11
401.909
 21
78.7277
  0
LINE
  8
0
 10
401.909
 20
78.7277
 11
401.711
 21
78.384
  0
LINE
  8
0
 10
401.711
 20
78.384
 11
401.445
 21
78.089
  0
LINE
  8
0
 10
401.445
 20
78.089
 11
401.124
 21
77.8557
  0
LINE
  8
0
 10
401.124
 20
77.8557
 11
400.762
 21
77.6943
  0
LINE
  8
0
 10
400.762
 20
77.6943
 11
400.373
 21
77.6117
  0
LINE
  8
0
 10
400.373
 20
77.6117
 11
399.977
 21
77.6117
  0
LINE
  8
0
 10
425.127
 20
77.6117
 11
424.738
 21
77.6943
  0
LINE
  8
0
 10
424.738
 20
77.6943
 11
424.376
 21
77.8557
  0
LINE
  8
0
 10
424.376
 20
77.8557
 11
424.055
 21
78.089
  0
LINE
  8
0
 10
424.055
 20
78.089
 11
423.789
 21
78.384
  0
LINE
  8
0
 10
423.789
 20
78.384
 11
423.59
 21
78.7277
  0
LINE
  8
0
 10
423.59
 20
78.7277
 11
423.468
 21
79.1052
  0
LINE
  8
0
 10
423.468
 20
79.1052
 11
423.426
 21
79.5
  0
LINE
  8
0
 10
423.426
 20
79.5
 11
423.468
 21
79.8947
  0
LINE
  8
0
 10
423.468
 20
79.8947
 11
423.59
 21
80.2722
  0
LINE
  8
0
 10
423.59
 20
80.2722
 11
423.789
 21
80.616
  0
LINE
  8
0
 10
423.789
 20
80.616
 11
424.055
 21
80.911
  0
LINE
  8
0
 10
424.055
 20
80.911
 11
424.376
 21
81.1443
  0
LINE
  8
0
 10
424.376
 20
81.1443
 11
424.738
 21
81.3057
  0
LINE
  8
0
 10
424.738
 20
81.3057
 11
425.127
 21
81.3882
  0
LINE
  8
0
 10
425.127
 20
81.3882
 11
425.523
 21
81.3882
  0
LINE
  8
0
 10
425.523
 20
81.3882
 11
425.912
 21
81.3057
  0
LINE
  8
0
 10
425.912
 20
81.3057
 11
426.274
 21
81.1443
  0
LINE
  8
0
 10
426.274
 20
81.1443
 11
426.595
 21
80.911
  0
LINE
  8
0
 10
426.595
 20
80.911
 11
426.861
 21
80.616
  0
LINE
  8
0
 10
426.861
 20
80.616
 11
427.059
 21
80.2722
  0
LINE
  8
0
 10
427.059
 20
80.2722
 11
427.182
 21
79.8947
  0
LINE
  8
0
 10
427.182
 20
79.8947
 11
427.224
 21
79.5
  0
LINE
  8
0
 10
427.224
 20
79.5
 11
427.182
 21
79.1052
  0
LINE
  8
0
 10
427.182
 20
79.1052
 11
427.059
 21
78.7277
  0
LINE
  8
0
 10
427.059
 20
78.7277
 11
426.861
 21
78.384
  0
LINE
  8
0
 10
426.861
 20
78.384
 11
426.595
 21
78.089
  0
LINE
  8
0
 10
426.595
 20
78.089
 11
426.274
 21
77.8557
  0
LINE
  8
0
 10
426.274
 20
77.8557
 11
425.912
 21
77.6943
  0
LINE
  8
0
 10
425.912
 20
77.6943
 11
425.523
 21
77.6117
  0
LINE
  8
0
 10
425.523
 20
77.6117
 11
425.127
 21
77.6117
  0
LINE
  8
0
 10
457.127
 20
77.6117
 11
456.738
 21
77.6943
  0
LINE
  8
0
 10
456.738
 20
77.6943
 11
456.376
 21
77.8557
  0
LINE
  8
0
 10
456.376
 20
77.8557
 11
456.055
 21
78.089
  0
LINE
  8
0
 10
456.055
 20
78.089
 11
455.789
 21
78.384
  0
LINE
  8
0
 10
455.789
 20
78.384
 11
455.59
 21
78.7277
  0
LINE
  8
0
 10
455.59
 20
78.7277
 11
455.468
 21
79.1052
  0
LINE
  8
0
 10
455.468
 20
79.1052
 11
455.426
 21
79.5
  0
LINE
  8
0
 10
455.426
 20
79.5
 11
455.468
 21
79.8947
  0
LINE
  8
0
 10
455.468
 20
79.8947
 11
455.59
 21
80.2722
  0
LINE
  8
0
 10
455.59
 20
80.2722
 11
455.789
 21
80.616
  0
LINE
  8
0
 10
455.789
 20
80.616
 11
456.055
 21
80.911
  0
LINE
  8
0
 10
456.055
 20
80.911
 11
456.376
 21
81.1443
  0
LINE
  8
0
 10
456.376
 20
81.1443
 11
456.738
 21
81.3057
  0
LINE
  8
0
 10
456.738
 20
81.3057
 11
457.127
 21
81.3882
  0
LINE
  8
0
 10
457.127
 20
81.3882
 11
457.523
 21
81.3882
  0
LINE
  8
0
 10
457.523
 20
81.3882
 11
457.912
 21
81.3057
  0
LINE
  8
0
 10
457.912
 20
81.3057
 11
458.274
 21
81.1443
  0
LINE
  8
0
 10
458.274
 20
81.1443
 11
458.595
 21
80.911
  0
LINE
  8
0
 10
458.595
 20
80.911
 11
458.861
 21
80.616
  0
LINE
  8
0
 10
458.861
 20
80.616
 11
459.059
 21
80.2722
  0
LINE
  8
0
 10
459.059
 20
80.2722
 11
459.182
 21
79.8947
  0
LINE
  8
0
 10
459.182
 20
79.8947
 11
459.224
 21
79.5
  0
LINE
  8
0
 10
459.224
 20
79.5
 11
459.182
 21
79.1052
  0
LINE
  8
0
 10
459.182
 20
79.1052
 11
459.059
 21
78.7277
  0
LINE
  8
0
 10
459.059
 20
78.7277
 11
458.861
 21
78.384
  0
LINE
  8
0
 10
458.861
 20
78.384
 11
458.595
 21
78.089
  0
LINE
  8
0
 10
458.595
 20
78.089
 11
458.274
 21
77.8557
  0
LINE
  8
0
 10
458.274
 20
77.8557
 11
457.912
 21
77.6943
  0
LINE
  8
0
 10
457.912
 20
77.6943
 11
457.523
 21
77.6117
  0
LINE
  8
0
 10
457.523
 20
77.6117
 11
457.127
 21
77.6117
  0
LINE
  8
0
 10
253.677
 20
77.6117
 11
253.288
 21
77.6943
  0
LINE
  8
0
 10
253.288
 20
77.6943
 11
252.926
 21
77.8557
  0
LINE
  8
0
 10
252.926
 20
77.8557
 11
252.605
 21
78.089
  0
LINE
  8
0
 10
252.605
 20
78.089
 11
252.339
 21
78.384
  0
LINE
  8
0
 10
252.339
 20
78.384
 11
252.14
 21
78.7277
  0
LINE
  8
0
 10
252.14
 20
78.7277
 11
252.018
 21
79.1052
  0
LINE
  8
0
 10
252.018
 20
79.1052
 11
251.976
 21
79.5
  0
LINE
  8
0
 10
251.976
 20
79.5
 11
252.018
 21
79.8947
  0
LINE
  8
0
 10
252.018
 20
79.8947
 11
252.14
 21
80.2722
  0
LINE
  8
0
 10
252.14
 20
80.2722
 11
252.339
 21
80.616
  0
LINE
  8
0
 10
252.339
 20
80.616
 11
252.605
 21
80.911
  0
LINE
  8
0
 10
252.605
 20
80.911
 11
252.926
 21
81.1443
  0
LINE
  8
0
 10
252.926
 20
81.1443
 11
253.288
 21
81.3057
  0
LINE
  8
0
 10
253.288
 20
81.3057
 11
253.677
 21
81.3882
  0
LINE
  8
0
 10
253.677
 20
81.3882
 11
254.073
 21
81.3882
  0
LINE
  8
0
 10
254.073
 20
81.3882
 11
254.462
 21
81.3057
  0
LINE
  8
0
 10
254.462
 20
81.3057
 11
254.824
 21
81.1443
  0
LINE
  8
0
 10
254.824
 20
81.1443
 11
255.145
 21
80.911
  0
LINE
  8
0
 10
255.145
 20
80.911
 11
255.411
 21
80.616
  0
LINE
  8
0
 10
255.411
 20
80.616
 11
255.61
 21
80.2722
  0
LINE
  8
0
 10
255.61
 20
80.2722
 11
255.732
 21
79.8947
  0
LINE
  8
0
 10
255.732
 20
79.8947
 11
255.774
 21
79.5
  0
LINE
  8
0
 10
255.774
 20
79.5
 11
255.732
 21
79.1052
  0
LINE
  8
0
 10
255.732
 20
79.1052
 11
255.61
 21
78.7277
  0
LINE
  8
0
 10
255.61
 20
78.7277
 11
255.411
 21
78.384
  0
LINE
  8
0
 10
255.411
 20
78.384
 11
255.145
 21
78.089
  0
LINE
  8
0
 10
255.145
 20
78.089
 11
254.824
 21
77.8557
  0
LINE
  8
0
 10
254.824
 20
77.8557
 11
254.462
 21
77.6943
  0
LINE
  8
0
 10
254.462
 20
77.6943
 11
254.073
 21
77.6117
  0
LINE
  8
0
 10
254.073
 20
77.6117
 11
253.677
 21
77.6117
  0
LINE
  8
0
 10
139.377
 20
45.6117
 11
138.988
 21
45.6943
  0
LINE
  8
0
 10
138.988
 20
45.6943
 11
138.626
 21
45.8557
  0
LINE
  8
0
 10
138.626
 20
45.8557
 11
138.305
 21
46.089
  0
LINE
  8
0
 10
138.305
 20
46.089
 11
138.039
 21
46.384
  0
LINE
  8
0
 10
138.039
 20
46.384
 11
137.841
 21
46.7277
  0
LINE
  8
0
 10
137.841
 20
46.7277
 11
137.718
 21
47.1052
  0
LINE
  8
0
 10
137.718
 20
47.1052
 11
137.676
 21
47.5
  0
LINE
  8
0
 10
137.676
 20
47.5
 11
137.718
 21
47.8947
  0
LINE
  8
0
 10
137.718
 20
47.8947
 11
137.841
 21
48.2723
  0
LINE
  8
0
 10
137.841
 20
48.2723
 11
138.039
 21
48.616
  0
LINE
  8
0
 10
138.039
 20
48.616
 11
138.305
 21
48.911
  0
LINE
  8
0
 10
138.305
 20
48.911
 11
138.626
 21
49.1443
  0
LINE
  8
0
 10
138.626
 20
49.1443
 11
138.988
 21
49.3057
  0
LINE
  8
0
 10
138.988
 20
49.3057
 11
139.377
 21
49.3882
  0
LINE
  8
0
 10
139.377
 20
49.3882
 11
139.773
 21
49.3882
  0
LINE
  8
0
 10
139.773
 20
49.3882
 11
140.162
 21
49.3057
  0
LINE
  8
0
 10
140.162
 20
49.3057
 11
140.524
 21
49.1443
  0
LINE
  8
0
 10
140.524
 20
49.1443
 11
140.845
 21
48.911
  0
LINE
  8
0
 10
140.845
 20
48.911
 11
141.111
 21
48.616
  0
LINE
  8
0
 10
141.111
 20
48.616
 11
141.31
 21
48.2723
  0
LINE
  8
0
 10
141.31
 20
48.2723
 11
141.432
 21
47.8947
  0
LINE
  8
0
 10
141.432
 20
47.8947
 11
141.474
 21
47.5
  0
LINE
  8
0
 10
141.474
 20
47.5
 11
141.432
 21
47.1052
  0
LINE
  8
0
 10
141.432
 20
47.1052
 11
141.31
 21
46.7277
  0
LINE
  8
0
 10
141.31
 20
46.7277
 11
141.111
 21
46.384
  0
LINE
  8
0
 10
141.111
 20
46.384
 11
140.845
 21
46.089
  0
LINE
  8
0
 10
140.845
 20
46.089
 11
140.524
 21
45.8557
  0
LINE
  8
0
 10
140.524
 20
45.8557
 11
140.162
 21
45.6943
  0
LINE
  8
0
 10
140.162
 20
45.6943
 11
139.773
 21
45.6117
  0
LINE
  8
0
 10
139.773
 20
45.6117
 11
139.377
 21
45.6117
  0
LINE
  8
0
 10
196.527
 20
45.6117
 11
196.138
 21
45.6943
  0
LINE
  8
0
 10
196.138
 20
45.6943
 11
195.776
 21
45.8557
  0
LINE
  8
0
 10
195.776
 20
45.8557
 11
195.455
 21
46.089
  0
LINE
  8
0
 10
195.455
 20
46.089
 11
195.189
 21
46.384
  0
LINE
  8
0
 10
195.189
 20
46.384
 11
194.99
 21
46.7277
  0
LINE
  8
0
 10
194.99
 20
46.7277
 11
194.868
 21
47.1052
  0
LINE
  8
0
 10
194.868
 20
47.1052
 11
194.826
 21
47.5
  0
LINE
  8
0
 10
194.826
 20
47.5
 11
194.868
 21
47.8947
  0
LINE
  8
0
 10
194.868
 20
47.8947
 11
194.99
 21
48.2723
  0
LINE
  8
0
 10
194.99
 20
48.2723
 11
195.189
 21
48.616
  0
LINE
  8
0
 10
195.189
 20
48.616
 11
195.455
 21
48.911
  0
LINE
  8
0
 10
195.455
 20
48.911
 11
195.776
 21
49.1443
  0
LINE
  8
0
 10
195.776
 20
49.1443
 11
196.138
 21
49.3057
  0
LINE
  8
0
 10
196.138
 20
49.3057
 11
196.527
 21
49.3882
  0
LINE
  8
0
 10
196.527
 20
49.3882
 11
196.923
 21
49.3882
  0
LINE
  8
0
 10
196.923
 20
49.3882
 11
197.312
 21
49.3057
  0
LINE
  8
0
 10
197.312
 20
49.3057
 11
197.674
 21
49.1443
  0
LINE
  8
0
 10
197.674
 20
49.1443
 11
197.995
 21
48.911
  0
LINE
  8
0
 10
197.995
 20
48.911
 11
198.261
 21
48.616
  0
LINE
  8
0
 10
198.261
 20
48.616
 11
198.46
 21
48.2723
  0
LINE
  8
0
 10
198.46
 20
48.2723
 11
198.582
 21
47.8947
  0
LINE
  8
0
 10
198.582
 20
47.8947
 11
198.624
 21
47.5
  0
LINE
  8
0
 10
198.624
 20
47.5
 11
198.582
 21
47.1052
  0
LINE
  8
0
 10
198.582
 20
47.1052
 11
198.46
 21
46.7277
  0
LINE
  8
0
 10
198.46
 20
46.7277
 11
198.261
 21
46.384
  0
LINE
  8
0
 10
198.261
 20
46.384
 11
197.995
 21
46.089
  0
LINE
  8
0
 10
197.995
 20
46.089
 11
197.674
 21
45.8557
  0
LINE
  8
0
 10
197.674
 20
45.8557
 11
197.312
 21
45.6943
  0
LINE
  8
0
 10
197.312
 20
45.6943
 11
196.923
 21
45.6117
  0
LINE
  8
0
 10
196.923
 20
45.6117
 11
196.527
 21
45.6117
  0
LINE
  8
0
 10
228.527
 20
45.6117
 11
228.138
 21
45.6943
  0
LINE
  8
0
 10
228.138
 20
45.6943
 11
227.776
 21
45.8557
  0
LINE
  8
0
 10
227.776
 20
45.8557
 11
227.455
 21
46.089
  0
LINE
  8
0
 10
227.455
 20
46.089
 11
227.189
 21
46.384
  0
LINE
  8
0
 10
227.189
 20
46.384
 11
226.99
 21
46.7277
  0
LINE
  8
0
 10
226.99
 20
46.7277
 11
226.868
 21
47.1052
  0
LINE
  8
0
 10
226.868
 20
47.1052
 11
226.826
 21
47.5
  0
LINE
  8
0
 10
226.826
 20
47.5
 11
226.868
 21
47.8947
  0
LINE
  8
0
 10
226.868
 20
47.8947
 11
226.99
 21
48.2723
  0
LINE
  8
0
 10
226.99
 20
48.2723
 11
227.189
 21
48.616
  0
LINE
  8
0
 10
227.189
 20
48.616
 11
227.455
 21
48.911
  0
LINE
  8
0
 10
227.455
 20
48.911
 11
227.776
 21
49.1443
  0
LINE
  8
0
 10
227.776
 20
49.1443
 11
228.138
 21
49.3057
  0
LINE
  8
0
 10
228.138
 20
49.3057
 11
228.527
 21
49.3882
  0
LINE
  8
0
 10
228.527
 20
49.3882
 11
228.923
 21
49.3882
  0
LINE
  8
0
 10
228.923
 20
49.3882
 11
229.312
 21
49.3057
  0
LINE
  8
0
 10
229.312
 20
49.3057
 11
229.674
 21
49.1443
  0
LINE
  8
0
 10
229.674
 20
49.1443
 11
229.995
 21
48.911
  0
LINE
  8
0
 10
229.995
 20
48.911
 11
230.261
 21
48.616
  0
LINE
  8
0
 10
230.261
 20
48.616
 11
230.459
 21
48.2723
  0
LINE
  8
0
 10
230.459
 20
48.2723
 11
230.582
 21
47.8947
  0
LINE
  8
0
 10
230.582
 20
47.8947
 11
230.624
 21
47.5
  0
LINE
  8
0
 10
230.624
 20
47.5
 11
230.582
 21
47.1052
  0
LINE
  8
0
 10
230.582
 20
47.1052
 11
230.459
 21
46.7277
  0
LINE
  8
0
 10
230.459
 20
46.7277
 11
230.261
 21
46.384
  0
LINE
  8
0
 10
230.261
 20
46.384
 11
229.995
 21
46.089
  0
LINE
  8
0
 10
229.995
 20
46.089
 11
229.674
 21
45.8557
  0
LINE
  8
0
 10
229.674
 20
45.8557
 11
229.312
 21
45.6943
  0
LINE
  8
0
 10
229.312
 20
45.6943
 11
228.923
 21
45.6117
  0
LINE
  8
0
 10
228.923
 20
45.6117
 11
228.527
 21
45.6117
  0
LINE
  8
0
 10
114.227
 20
45.6117
 11
113.838
 21
45.6943
  0
LINE
  8
0
 10
113.838
 20
45.6943
 11
113.476
 21
45.8557
  0
LINE
  8
0
 10
113.476
 20
45.8557
 11
113.155
 21
46.089
  0
LINE
  8
0
 10
113.155
 20
46.089
 11
112.889
 21
46.384
  0
LINE
  8
0
 10
112.889
 20
46.384
 11
112.69
 21
46.7277
  0
LINE
  8
0
 10
112.69
 20
46.7277
 11
112.568
 21
47.1052
  0
LINE
  8
0
 10
112.568
 20
47.1052
 11
112.526
 21
47.5
  0
LINE
  8
0
 10
112.526
 20
47.5
 11
112.568
 21
47.8947
  0
LINE
  8
0
 10
112.568
 20
47.8947
 11
112.69
 21
48.2723
  0
LINE
  8
0
 10
112.69
 20
48.2723
 11
112.889
 21
48.616
  0
LINE
  8
0
 10
112.889
 20
48.616
 11
113.155
 21
48.911
  0
LINE
  8
0
 10
113.155
 20
48.911
 11
113.476
 21
49.1443
  0
LINE
  8
0
 10
113.476
 20
49.1443
 11
113.838
 21
49.3057
  0
LINE
  8
0
 10
113.838
 20
49.3057
 11
114.227
 21
49.3882
  0
LINE
  8
0
 10
114.227
 20
49.3882
 11
114.623
 21
49.3882
  0
LINE
  8
0
 10
114.623
 20
49.3882
 11
115.012
 21
49.3057
  0
LINE
  8
0
 10
115.012
 20
49.3057
 11
115.374
 21
49.1443
  0
LINE
  8
0
 10
115.374
 20
49.1443
 11
115.695
 21
48.911
  0
LINE
  8
0
 10
115.695
 20
48.911
 11
115.961
 21
48.616
  0
LINE
  8
0
 10
115.961
 20
48.616
 11
116.159
 21
48.2723
  0
LINE
  8
0
 10
116.159
 20
48.2723
 11
116.282
 21
47.8947
  0
LINE
  8
0
 10
116.282
 20
47.8947
 11
116.324
 21
47.5
  0
LINE
  8
0
 10
116.324
 20
47.5
 11
116.282
 21
47.1052
  0
LINE
  8
0
 10
116.282
 20
47.1052
 11
116.159
 21
46.7277
  0
LINE
  8
0
 10
116.159
 20
46.7277
 11
115.961
 21
46.384
  0
LINE
  8
0
 10
115.961
 20
46.384
 11
115.695
 21
46.089
  0
LINE
  8
0
 10
115.695
 20
46.089
 11
115.374
 21
45.8557
  0
LINE
  8
0
 10
115.374
 20
45.8557
 11
115.012
 21
45.6943
  0
LINE
  8
0
 10
115.012
 20
45.6943
 11
114.623
 21
45.6117
  0
LINE
  8
0
 10
114.623
 20
45.6117
 11
114.227
 21
45.6117
  0
LINE
  8
0
 10
253.677
 20
45.6117
 11
253.288
 21
45.6943
  0
LINE
  8
0
 10
253.288
 20
45.6943
 11
252.926
 21
45.8557
  0
LINE
  8
0
 10
252.926
 20
45.8557
 11
252.605
 21
46.089
  0
LINE
  8
0
 10
252.605
 20
46.089
 11
252.339
 21
46.384
  0
LINE
  8
0
 10
252.339
 20
46.384
 11
252.14
 21
46.7277
  0
LINE
  8
0
 10
252.14
 20
46.7277
 11
252.018
 21
47.1052
  0
LINE
  8
0
 10
252.018
 20
47.1052
 11
251.976
 21
47.5
  0
LINE
  8
0
 10
251.976
 20
47.5
 11
252.018
 21
47.8947
  0
LINE
  8
0
 10
252.018
 20
47.8947
 11
252.14
 21
48.2723
  0
LINE
  8
0
 10
252.14
 20
48.2723
 11
252.339
 21
48.616
  0
LINE
  8
0
 10
252.339
 20
48.616
 11
252.605
 21
48.911
  0
LINE
  8
0
 10
252.605
 20
48.911
 11
252.926
 21
49.1443
  0
LINE
  8
0
 10
252.926
 20
49.1443
 11
253.288
 21
49.3057
  0
LINE
  8
0
 10
253.288
 20
49.3057
 11
253.677
 21
49.3882
  0
LINE
  8
0
 10
253.677
 20
49.3882
 11
254.073
 21
49.3882
  0
LINE
  8
0
 10
254.073
 20
49.3882
 11
254.462
 21
49.3057
  0
LINE
  8
0
 10
254.462
 20
49.3057
 11
254.824
 21
49.1443
  0
LINE
  8
0
 10
254.824
 20
49.1443
 11
255.145
 21
48.911
  0
LINE
  8
0
 10
255.145
 20
48.911
 11
255.411
 21
48.616
  0
LINE
  8
0
 10
255.411
 20
48.616
 11
255.61
 21
48.2723
  0
LINE
  8
0
 10
255.61
 20
48.2723
 11
255.732
 21
47.8947
  0
LINE
  8
0
 10
255.732
 20
47.8947
 11
255.774
 21
47.5
  0
LINE
  8
0
 10
255.774
 20
47.5
 11
255.732
 21
47.1052
  0
LINE
  8
0
 10
255.732
 20
47.1052
 11
255.61
 21
46.7277
  0
LINE
  8
0
 10
255.61
 20
46.7277
 11
255.411
 21
46.384
  0
LINE
  8
0
 10
255.411
 20
46.384
 11
255.145
 21
46.089
  0
LINE
  8
0
 10
255.145
 20
46.089
 11
254.824
 21
45.8557
  0
LINE
  8
0
 10
254.824
 20
45.8557
 11
254.462
 21
45.6943
  0
LINE
  8
0
 10
254.462
 20
45.6943
 11
254.073
 21
45.6117
  0
LINE
  8
0
 10
254.073
 20
45.6117
 11
253.677
 21
45.6117
  0
LINE
  8
0
 10
285.677
 20
45.6117
 11
285.288
 21
45.6943
  0
LINE
  8
0
 10
285.288
 20
45.6943
 11
284.926
 21
45.8557
  0
LINE
  8
0
 10
284.926
 20
45.8557
 11
284.605
 21
46.089
  0
LINE
  8
0
 10
284.605
 20
46.089
 11
284.339
 21
46.384
  0
LINE
  8
0
 10
284.339
 20
46.384
 11
284.14
 21
46.7277
  0
LINE
  8
0
 10
284.14
 20
46.7277
 11
284.018
 21
47.1052
  0
LINE
  8
0
 10
284.018
 20
47.1052
 11
283.976
 21
47.5
  0
LINE
  8
0
 10
283.976
 20
47.5
 11
284.018
 21
47.8947
  0
LINE
  8
0
 10
284.018
 20
47.8947
 11
284.14
 21
48.2723
  0
LINE
  8
0
 10
284.14
 20
48.2723
 11
284.339
 21
48.616
  0
LINE
  8
0
 10
284.339
 20
48.616
 11
284.605
 21
48.911
  0
LINE
  8
0
 10
284.605
 20
48.911
 11
284.926
 21
49.1443
  0
LINE
  8
0
 10
284.926
 20
49.1443
 11
285.288
 21
49.3057
  0
LINE
  8
0
 10
285.288
 20
49.3057
 11
285.677
 21
49.3882
  0
LINE
  8
0
 10
285.677
 20
49.3882
 11
286.073
 21
49.3882
  0
LINE
  8
0
 10
286.073
 20
49.3882
 11
286.462
 21
49.3057
  0
LINE
  8
0
 10
286.462
 20
49.3057
 11
286.824
 21
49.1443
  0
LINE
  8
0
 10
286.824
 20
49.1443
 11
287.145
 21
48.911
  0
LINE
  8
0
 10
287.145
 20
48.911
 11
287.411
 21
48.616
  0
LINE
  8
0
 10
287.411
 20
48.616
 11
287.609
 21
48.2723
  0
LINE
  8
0
 10
287.609
 20
48.2723
 11
287.732
 21
47.8947
  0
LINE
  8
0
 10
287.732
 20
47.8947
 11
287.774
 21
47.5
  0
LINE
  8
0
 10
287.774
 20
47.5
 11
287.732
 21
47.1052
  0
LINE
  8
0
 10
287.732
 20
47.1052
 11
287.609
 21
46.7277
  0
LINE
  8
0
 10
287.609
 20
46.7277
 11
287.411
 21
46.384
  0
LINE
  8
0
 10
287.411
 20
46.384
 11
287.145
 21
46.089
  0
LINE
  8
0
 10
287.145
 20
46.089
 11
286.824
 21
45.8557
  0
LINE
  8
0
 10
286.824
 20
45.8557
 11
286.462
 21
45.6943
  0
LINE
  8
0
 10
286.462
 20
45.6943
 11
286.073
 21
45.6117
  0
LINE
  8
0
 10
286.073
 20
45.6117
 11
285.677
 21
45.6117
  0
LINE
  8
0
 10
82.2265
 20
45.6117
 11
81.8383
 21
45.6943
  0
LINE
  8
0
 10
81.8383
 20
45.6943
 11
81.4757
 21
45.8557
  0
LINE
  8
0
 10
81.4757
 20
45.8557
 11
81.1546
 21
46.089
  0
LINE
  8
0
 10
81.1546
 20
46.089
 11
80.889
 21
46.384
  0
LINE
  8
0
 10
80.889
 20
46.384
 11
80.6905
 21
46.7277
  0
LINE
  8
0
 10
80.6905
 20
46.7277
 11
80.5678
 21
47.1052
  0
LINE
  8
0
 10
80.5678
 20
47.1052
 11
80.5264
 21
47.5
  0
LINE
  8
0
 10
80.5264
 20
47.5
 11
80.5678
 21
47.8947
  0
LINE
  8
0
 10
80.5678
 20
47.8947
 11
80.6905
 21
48.2723
  0
LINE
  8
0
 10
80.6905
 20
48.2723
 11
80.889
 21
48.616
  0
LINE
  8
0
 10
80.889
 20
48.616
 11
81.1546
 21
48.911
  0
LINE
  8
0
 10
81.1546
 20
48.911
 11
81.4757
 21
49.1443
  0
LINE
  8
0
 10
81.4757
 20
49.1443
 11
81.8383
 21
49.3057
  0
LINE
  8
0
 10
81.8383
 20
49.3057
 11
82.2265
 21
49.3882
  0
LINE
  8
0
 10
82.2265
 20
49.3882
 11
82.6235
 21
49.3882
  0
LINE
  8
0
 10
82.6235
 20
49.3882
 11
83.0117
 21
49.3057
  0
LINE
  8
0
 10
83.0117
 20
49.3057
 11
83.3743
 21
49.1443
  0
LINE
  8
0
 10
83.3743
 20
49.1443
 11
83.6954
 21
48.911
  0
LINE
  8
0
 10
83.6954
 20
48.911
 11
83.961
 21
48.616
  0
LINE
  8
0
 10
83.961
 20
48.616
 11
84.1595
 21
48.2723
  0
LINE
  8
0
 10
84.1595
 20
48.2723
 11
84.2822
 21
47.8947
  0
LINE
  8
0
 10
84.2822
 20
47.8947
 11
84.3236
 21
47.5
  0
LINE
  8
0
 10
84.3236
 20
47.5
 11
84.2822
 21
47.1052
  0
LINE
  8
0
 10
84.2822
 20
47.1052
 11
84.1595
 21
46.7277
  0
LINE
  8
0
 10
84.1595
 20
46.7277
 11
83.961
 21
46.384
  0
LINE
  8
0
 10
83.961
 20
46.384
 11
83.6954
 21
46.089
  0
LINE
  8
0
 10
83.6954
 20
46.089
 11
83.3743
 21
45.8557
  0
LINE
  8
0
 10
83.3743
 20
45.8557
 11
83.0117
 21
45.6943
  0
LINE
  8
0
 10
83.0117
 20
45.6943
 11
82.6235
 21
45.6117
  0
LINE
  8
0
 10
82.6235
 20
45.6117
 11
82.2265
 21
45.6117
  0
LINE
  8
0
 10
310.827
 20
45.6117
 11
310.438
 21
45.6943
  0
LINE
  8
0
 10
310.438
 20
45.6943
 11
310.076
 21
45.8557
  0
LINE
  8
0
 10
310.076
 20
45.8557
 11
309.755
 21
46.089
  0
LINE
  8
0
 10
309.755
 20
46.089
 11
309.489
 21
46.384
  0
LINE
  8
0
 10
309.489
 20
46.384
 11
309.29
 21
46.7277
  0
LINE
  8
0
 10
309.29
 20
46.7277
 11
309.168
 21
47.1052
  0
LINE
  8
0
 10
309.168
 20
47.1052
 11
309.126
 21
47.5
  0
LINE
  8
0
 10
309.126
 20
47.5
 11
309.168
 21
47.8947
  0
LINE
  8
0
 10
309.168
 20
47.8947
 11
309.29
 21
48.2723
  0
LINE
  8
0
 10
309.29
 20
48.2723
 11
309.489
 21
48.616
  0
LINE
  8
0
 10
309.489
 20
48.616
 11
309.755
 21
48.911
  0
LINE
  8
0
 10
309.755
 20
48.911
 11
310.076
 21
49.1443
  0
LINE
  8
0
 10
310.076
 20
49.1443
 11
310.438
 21
49.3057
  0
LINE
  8
0
 10
310.438
 20
49.3057
 11
310.827
 21
49.3882
  0
LINE
  8
0
 10
310.827
 20
49.3882
 11
311.223
 21
49.3882
  0
LINE
  8
0
 10
311.223
 20
49.3882
 11
311.612
 21
49.3057
  0
LINE
  8
0
 10
311.612
 20
49.3057
 11
311.974
 21
49.1443
  0
LINE
  8
0
 10
311.974
 20
49.1443
 11
312.295
 21
48.911
  0
LINE
  8
0
 10
312.295
 20
48.911
 11
312.561
 21
48.616
  0
LINE
  8
0
 10
312.561
 20
48.616
 11
312.76
 21
48.2723
  0
LINE
  8
0
 10
312.76
 20
48.2723
 11
312.882
 21
47.8947
  0
LINE
  8
0
 10
312.882
 20
47.8947
 11
312.924
 21
47.5
  0
LINE
  8
0
 10
312.924
 20
47.5
 11
312.882
 21
47.1052
  0
LINE
  8
0
 10
312.882
 20
47.1052
 11
312.76
 21
46.7277
  0
LINE
  8
0
 10
312.76
 20
46.7277
 11
312.561
 21
46.384
  0
LINE
  8
0
 10
312.561
 20
46.384
 11
312.295
 21
46.089
  0
LINE
  8
0
 10
312.295
 20
46.089
 11
311.974
 21
45.8557
  0
LINE
  8
0
 10
311.974
 20
45.8557
 11
311.612
 21
45.6943
  0
LINE
  8
0
 10
311.612
 20
45.6943
 11
311.223
 21
45.6117
  0
LINE
  8
0
 10
311.223
 20
45.6117
 11
310.827
 21
45.6117
  0
LINE
  8
0
 10
342.827
 20
45.6117
 11
342.438
 21
45.6943
  0
LINE
  8
0
 10
342.438
 20
45.6943
 11
342.076
 21
45.8557
  0
LINE
  8
0
 10
342.076
 20
45.8557
 11
341.755
 21
46.089
  0
LINE
  8
0
 10
341.755
 20
46.089
 11
341.489
 21
46.384
  0
LINE
  8
0
 10
341.489
 20
46.384
 11
341.29
 21
46.7277
  0
LINE
  8
0
 10
341.29
 20
46.7277
 11
341.168
 21
47.1052
  0
LINE
  8
0
 10
341.168
 20
47.1052
 11
341.126
 21
47.5
  0
LINE
  8
0
 10
341.126
 20
47.5
 11
341.168
 21
47.8947
  0
LINE
  8
0
 10
341.168
 20
47.8947
 11
341.29
 21
48.2723
  0
LINE
  8
0
 10
341.29
 20
48.2723
 11
341.489
 21
48.616
  0
LINE
  8
0
 10
341.489
 20
48.616
 11
341.755
 21
48.911
  0
LINE
  8
0
 10
341.755
 20
48.911
 11
342.076
 21
49.1443
  0
LINE
  8
0
 10
342.076
 20
49.1443
 11
342.438
 21
49.3057
  0
LINE
  8
0
 10
342.438
 20
49.3057
 11
342.827
 21
49.3882
  0
LINE
  8
0
 10
342.827
 20
49.3882
 11
343.223
 21
49.3882
  0
LINE
  8
0
 10
343.223
 20
49.3882
 11
343.612
 21
49.3057
  0
LINE
  8
0
 10
343.612
 20
49.3057
 11
343.974
 21
49.1443
  0
LINE
  8
0
 10
343.974
 20
49.1443
 11
344.295
 21
48.911
  0
LINE
  8
0
 10
344.295
 20
48.911
 11
344.561
 21
48.616
  0
LINE
  8
0
 10
344.561
 20
48.616
 11
344.759
 21
48.2723
  0
LINE
  8
0
 10
344.759
 20
48.2723
 11
344.882
 21
47.8947
  0
LINE
  8
0
 10
344.882
 20
47.8947
 11
344.924
 21
47.5
  0
LINE
  8
0
 10
344.924
 20
47.5
 11
344.882
 21
47.1052
  0
LINE
  8
0
 10
344.882
 20
47.1052
 11
344.759
 21
46.7277
  0
LINE
  8
0
 10
344.759
 20
46.7277
 11
344.561
 21
46.384
  0
LINE
  8
0
 10
344.561
 20
46.384
 11
344.295
 21
46.089
  0
LINE
  8
0
 10
344.295
 20
46.089
 11
343.974
 21
45.8557
  0
LINE
  8
0
 10
343.974
 20
45.8557
 11
343.612
 21
45.6943
  0
LINE
  8
0
 10
343.612
 20
45.6943
 11
343.223
 21
45.6117
  0
LINE
  8
0
 10
343.223
 20
45.6117
 11
342.827
 21
45.6117
  0
LINE
  8
0
 10
57.0765
 20
45.6117
 11
56.6883
 21
45.6943
  0
LINE
  8
0
 10
56.6883
 20
45.6943
 11
56.3257
 21
45.8557
  0
LINE
  8
0
 10
56.3257
 20
45.8557
 11
56.0046
 21
46.089
  0
LINE
  8
0
 10
56.0046
 20
46.089
 11
55.739
 21
46.384
  0
LINE
  8
0
 10
55.739
 20
46.384
 11
55.5405
 21
46.7277
  0
LINE
  8
0
 10
55.5405
 20
46.7277
 11
55.4178
 21
47.1052
  0
LINE
  8
0
 10
55.4178
 20
47.1052
 11
55.3763
 21
47.5
  0
LINE
  8
0
 10
55.3763
 20
47.5
 11
55.4178
 21
47.8947
  0
LINE
  8
0
 10
55.4178
 20
47.8947
 11
55.5405
 21
48.2723
  0
LINE
  8
0
 10
55.5405
 20
48.2723
 11
55.739
 21
48.616
  0
LINE
  8
0
 10
55.739
 20
48.616
 11
56.0046
 21
48.911
  0
LINE
  8
0
 10
56.0046
 20
48.911
 11
56.3257
 21
49.1443
  0
LINE
  8
0
 10
56.3257
 20
49.1443
 11
56.6883
 21
49.3057
  0
LINE
  8
0
 10
56.6883
 20
49.3057
 11
57.0765
 21
49.3882
  0
LINE
  8
0
 10
57.0765
 20
49.3882
 11
57.4735
 21
49.3882
  0
LINE
  8
0
 10
57.4735
 20
49.3882
 11
57.8617
 21
49.3057
  0
LINE
  8
0
 10
57.8617
 20
49.3057
 11
58.2243
 21
49.1443
  0
LINE
  8
0
 10
58.2243
 20
49.1443
 11
58.5454
 21
48.911
  0
LINE
  8
0
 10
58.5454
 20
48.911
 11
58.811
 21
48.616
  0
LINE
  8
0
 10
58.811
 20
48.616
 11
59.0095
 21
48.2723
  0
LINE
  8
0
 10
59.0095
 20
48.2723
 11
59.1321
 21
47.8947
  0
LINE
  8
0
 10
59.1321
 20
47.8947
 11
59.1736
 21
47.5
  0
LINE
  8
0
 10
59.1736
 20
47.5
 11
59.1321
 21
47.1052
  0
LINE
  8
0
 10
59.1321
 20
47.1052
 11
59.0095
 21
46.7277
  0
LINE
  8
0
 10
59.0095
 20
46.7277
 11
58.811
 21
46.384
  0
LINE
  8
0
 10
58.811
 20
46.384
 11
58.5454
 21
46.089
  0
LINE
  8
0
 10
58.5454
 20
46.089
 11
58.2243
 21
45.8557
  0
LINE
  8
0
 10
58.2243
 20
45.8557
 11
57.8617
 21
45.6943
  0
LINE
  8
0
 10
57.8617
 20
45.6943
 11
57.4735
 21
45.6117
  0
LINE
  8
0
 10
57.4735
 20
45.6117
 11
57.0765
 21
45.6117
  0
LINE
  8
0
 10
367.977
 20
45.6117
 11
367.588
 21
45.6943
  0
LINE
  8
0
 10
367.588
 20
45.6943
 11
367.226
 21
45.8557
  0
LINE
  8
0
 10
367.226
 20
45.8557
 11
366.905
 21
46.089
  0
LINE
  8
0
 10
366.905
 20
46.089
 11
366.639
 21
46.384
  0
LINE
  8
0
 10
366.639
 20
46.384
 11
366.44
 21
46.7277
  0
LINE
  8
0
 10
366.44
 20
46.7277
 11
366.318
 21
47.1052
  0
LINE
  8
0
 10
366.318
 20
47.1052
 11
366.276
 21
47.5
  0
LINE
  8
0
 10
366.276
 20
47.5
 11
366.318
 21
47.8947
  0
LINE
  8
0
 10
366.318
 20
47.8947
 11
366.44
 21
48.2723
  0
LINE
  8
0
 10
366.44
 20
48.2723
 11
366.639
 21
48.616
  0
LINE
  8
0
 10
366.639
 20
48.616
 11
366.905
 21
48.911
  0
LINE
  8
0
 10
366.905
 20
48.911
 11
367.226
 21
49.1443
  0
LINE
  8
0
 10
367.226
 20
49.1443
 11
367.588
 21
49.3057
  0
LINE
  8
0
 10
367.588
 20
49.3057
 11
367.977
 21
49.3882
  0
LINE
  8
0
 10
367.977
 20
49.3882
 11
368.373
 21
49.3882
  0
LINE
  8
0
 10
368.373
 20
49.3882
 11
368.762
 21
49.3057
  0
LINE
  8
0
 10
368.762
 20
49.3057
 11
369.124
 21
49.1443
  0
LINE
  8
0
 10
369.124
 20
49.1443
 11
369.445
 21
48.911
  0
LINE
  8
0
 10
369.445
 20
48.911
 11
369.711
 21
48.616
  0
LINE
  8
0
 10
369.711
 20
48.616
 11
369.91
 21
48.2723
  0
LINE
  8
0
 10
369.91
 20
48.2723
 11
370.032
 21
47.8947
  0
LINE
  8
0
 10
370.032
 20
47.8947
 11
370.074
 21
47.5
  0
LINE
  8
0
 10
370.074
 20
47.5
 11
370.032
 21
47.1052
  0
LINE
  8
0
 10
370.032
 20
47.1052
 11
369.91
 21
46.7277
  0
LINE
  8
0
 10
369.91
 20
46.7277
 11
369.711
 21
46.384
  0
LINE
  8
0
 10
369.711
 20
46.384
 11
369.445
 21
46.089
  0
LINE
  8
0
 10
369.445
 20
46.089
 11
369.124
 21
45.8557
  0
LINE
  8
0
 10
369.124
 20
45.8557
 11
368.762
 21
45.6943
  0
LINE
  8
0
 10
368.762
 20
45.6943
 11
368.373
 21
45.6117
  0
LINE
  8
0
 10
368.373
 20
45.6117
 11
367.977
 21
45.6117
  0
LINE
  8
0
 10
399.977
 20
45.6117
 11
399.588
 21
45.6943
  0
LINE
  8
0
 10
399.588
 20
45.6943
 11
399.226
 21
45.8557
  0
LINE
  8
0
 10
399.226
 20
45.8557
 11
398.905
 21
46.089
  0
LINE
  8
0
 10
398.905
 20
46.089
 11
398.639
 21
46.384
  0
LINE
  8
0
 10
398.639
 20
46.384
 11
398.44
 21
46.7277
  0
LINE
  8
0
 10
398.44
 20
46.7277
 11
398.318
 21
47.1052
  0
LINE
  8
0
 10
398.318
 20
47.1052
 11
398.276
 21
47.5
  0
LINE
  8
0
 10
398.276
 20
47.5
 11
398.318
 21
47.8947
  0
LINE
  8
0
 10
398.318
 20
47.8947
 11
398.44
 21
48.2723
  0
LINE
  8
0
 10
398.44
 20
48.2723
 11
398.639
 21
48.616
  0
LINE
  8
0
 10
398.639
 20
48.616
 11
398.905
 21
48.911
  0
LINE
  8
0
 10
398.905
 20
48.911
 11
399.226
 21
49.1443
  0
LINE
  8
0
 10
399.226
 20
49.1443
 11
399.588
 21
49.3057
  0
LINE
  8
0
 10
399.588
 20
49.3057
 11
399.977
 21
49.3882
  0
LINE
  8
0
 10
399.977
 20
49.3882
 11
400.373
 21
49.3882
  0
LINE
  8
0
 10
400.373
 20
49.3882
 11
400.762
 21
49.3057
  0
LINE
  8
0
 10
400.762
 20
49.3057
 11
401.124
 21
49.1443
  0
LINE
  8
0
 10
401.124
 20
49.1443
 11
401.445
 21
48.911
  0
LINE
  8
0
 10
401.445
 20
48.911
 11
401.711
 21
48.616
  0
LINE
  8
0
 10
401.711
 20
48.616
 11
401.909
 21
48.2723
  0
LINE
  8
0
 10
401.909
 20
48.2723
 11
402.032
 21
47.8947
  0
LINE
  8
0
 10
402.032
 20
47.8947
 11
402.074
 21
47.5
  0
LINE
  8
0
 10
402.074
 20
47.5
 11
402.032
 21
47.1052
  0
LINE
  8
0
 10
402.032
 20
47.1052
 11
401.909
 21
46.7277
  0
LINE
  8
0
 10
401.909
 20
46.7277
 11
401.711
 21
46.384
  0
LINE
  8
0
 10
401.711
 20
46.384
 11
401.445
 21
46.089
  0
LINE
  8
0
 10
401.445
 20
46.089
 11
401.124
 21
45.8557
  0
LINE
  8
0
 10
401.124
 20
45.8557
 11
400.762
 21
45.6943
  0
LINE
  8
0
 10
400.762
 20
45.6943
 11
400.373
 21
45.6117
  0
LINE
  8
0
 10
400.373
 20
45.6117
 11
399.977
 21
45.6117
  0
LINE
  8
0
 10
25.0765
 20
45.6117
 11
24.6883
 21
45.6943
  0
LINE
  8
0
 10
24.6883
 20
45.6943
 11
24.3257
 21
45.8557
  0
LINE
  8
0
 10
24.3257
 20
45.8557
 11
24.0046
 21
46.089
  0
LINE
  8
0
 10
24.0046
 20
46.089
 11
23.739
 21
46.384
  0
LINE
  8
0
 10
23.739
 20
46.384
 11
23.5405
 21
46.7277
  0
LINE
  8
0
 10
23.5405
 20
46.7277
 11
23.4178
 21
47.1052
  0
LINE
  8
0
 10
23.4178
 20
47.1052
 11
23.3764
 21
47.5
  0
LINE
  8
0
 10
23.3764
 20
47.5
 11
23.4178
 21
47.8947
  0
LINE
  8
0
 10
23.4178
 20
47.8947
 11
23.5405
 21
48.2723
  0
LINE
  8
0
 10
23.5405
 20
48.2723
 11
23.739
 21
48.616
  0
LINE
  8
0
 10
23.739
 20
48.616
 11
24.0046
 21
48.911
  0
LINE
  8
0
 10
24.0046
 20
48.911
 11
24.3257
 21
49.1443
  0
LINE
  8
0
 10
24.3257
 20
49.1443
 11
24.6883
 21
49.3057
  0
LINE
  8
0
 10
24.6883
 20
49.3057
 11
25.0765
 21
49.3882
  0
LINE
  8
0
 10
25.0765
 20
49.3882
 11
25.4735
 21
49.3882
  0
LINE
  8
0
 10
25.4735
 20
49.3882
 11
25.8617
 21
49.3057
  0
LINE
  8
0
 10
25.8617
 20
49.3057
 11
26.2243
 21
49.1443
  0
LINE
  8
0
 10
26.2243
 20
49.1443
 11
26.5454
 21
48.911
  0
LINE
  8
0
 10
26.5454
 20
48.911
 11
26.811
 21
48.616
  0
LINE
  8
0
 10
26.811
 20
48.616
 11
27.0095
 21
48.2723
  0
LINE
  8
0
 10
27.0095
 20
48.2723
 11
27.1322
 21
47.8947
  0
LINE
  8
0
 10
27.1322
 20
47.8947
 11
27.1736
 21
47.5
  0
LINE
  8
0
 10
27.1736
 20
47.5
 11
27.1322
 21
47.1052
  0
LINE
  8
0
 10
27.1322
 20
47.1052
 11
27.0095
 21
46.7277
  0
LINE
  8
0
 10
27.0095
 20
46.7277
 11
26.811
 21
46.384
  0
LINE
  8
0
 10
26.811
 20
46.384
 11
26.5454
 21
46.089
  0
LINE
  8
0
 10
26.5454
 20
46.089
 11
26.2243
 21
45.8557
  0
LINE
  8
0
 10
26.2243
 20
45.8557
 11
25.8617
 21
45.6943
  0
LINE
  8
0
 10
25.8617
 20
45.6943
 11
25.4735
 21
45.6117
  0
LINE
  8
0
 10
25.4735
 20
45.6117
 11
25.0765
 21
45.6117
  0
LINE
  8
0
 10
425.127
 20
45.6117
 11
424.738
 21
45.6943
  0
LINE
  8
0
 10
424.738
 20
45.6943
 11
424.376
 21
45.8557
  0
LINE
  8
0
 10
424.376
 20
45.8557
 11
424.055
 21
46.089
  0
LINE
  8
0
 10
424.055
 20
46.089
 11
423.789
 21
46.384
  0
LINE
  8
0
 10
423.789
 20
46.384
 11
423.59
 21
46.7277
  0
LINE
  8
0
 10
423.59
 20
46.7277
 11
423.468
 21
47.1052
  0
LINE
  8
0
 10
423.468
 20
47.1052
 11
423.426
 21
47.5
  0
LINE
  8
0
 10
423.426
 20
47.5
 11
423.468
 21
47.8947
  0
LINE
  8
0
 10
423.468
 20
47.8947
 11
423.59
 21
48.2723
  0
LINE
  8
0
 10
423.59
 20
48.2723
 11
423.789
 21
48.616
  0
LINE
  8
0
 10
423.789
 20
48.616
 11
424.055
 21
48.911
  0
LINE
  8
0
 10
424.055
 20
48.911
 11
424.376
 21
49.1443
  0
LINE
  8
0
 10
424.376
 20
49.1443
 11
424.738
 21
49.3057
  0
LINE
  8
0
 10
424.738
 20
49.3057
 11
425.127
 21
49.3882
  0
LINE
  8
0
 10
425.127
 20
49.3882
 11
425.523
 21
49.3882
  0
LINE
  8
0
 10
425.523
 20
49.3882
 11
425.912
 21
49.3057
  0
LINE
  8
0
 10
425.912
 20
49.3057
 11
426.274
 21
49.1443
  0
LINE
  8
0
 10
426.274
 20
49.1443
 11
426.595
 21
48.911
  0
LINE
  8
0
 10
426.595
 20
48.911
 11
426.861
 21
48.616
  0
LINE
  8
0
 10
426.861
 20
48.616
 11
427.059
 21
48.2723
  0
LINE
  8
0
 10
427.059
 20
48.2723
 11
427.182
 21
47.8947
  0
LINE
  8
0
 10
427.182
 20
47.8947
 11
427.224
 21
47.5
  0
LINE
  8
0
 10
427.224
 20
47.5
 11
427.182
 21
47.1052
  0
LINE
  8
0
 10
427.182
 20
47.1052
 11
427.059
 21
46.7277
  0
LINE
  8
0
 10
427.059
 20
46.7277
 11
426.861
 21
46.384
  0
LINE
  8
0
 10
426.861
 20
46.384
 11
426.595
 21
46.089
  0
LINE
  8
0
 10
426.595
 20
46.089
 11
426.274
 21
45.8557
  0
LINE
  8
0
 10
426.274
 20
45.8557
 11
425.912
 21
45.6943
  0
LINE
  8
0
 10
425.912
 20
45.6943
 11
425.523
 21
45.6117
  0
LINE
  8
0
 10
425.523
 20
45.6117
 11
425.127
 21
45.6117
  0
LINE
  8
0
 10
171.377
 20
45.6117
 11
170.988
 21
45.6943
  0
LINE
  8
0
 10
170.988
 20
45.6943
 11
170.626
 21
45.8557
  0
LINE
  8
0
 10
170.626
 20
45.8557
 11
170.305
 21
46.089
  0
LINE
  8
0
 10
170.305
 20
46.089
 11
170.039
 21
46.384
  0
LINE
  8
0
 10
170.039
 20
46.384
 11
169.84
 21
46.7277
  0
LINE
  8
0
 10
169.84
 20
46.7277
 11
169.718
 21
47.1052
  0
LINE
  8
0
 10
169.718
 20
47.1052
 11
169.676
 21
47.5
  0
LINE
  8
0
 10
169.676
 20
47.5
 11
169.718
 21
47.8947
  0
LINE
  8
0
 10
169.718
 20
47.8947
 11
169.84
 21
48.2723
  0
LINE
  8
0
 10
169.84
 20
48.2723
 11
170.039
 21
48.616
  0
LINE
  8
0
 10
170.039
 20
48.616
 11
170.305
 21
48.911
  0
LINE
  8
0
 10
170.305
 20
48.911
 11
170.626
 21
49.1443
  0
LINE
  8
0
 10
170.626
 20
49.1443
 11
170.988
 21
49.3057
  0
LINE
  8
0
 10
170.988
 20
49.3057
 11
171.377
 21
49.3882
  0
LINE
  8
0
 10
171.377
 20
49.3882
 11
171.773
 21
49.3882
  0
LINE
  8
0
 10
171.773
 20
49.3882
 11
172.162
 21
49.3057
  0
LINE
  8
0
 10
172.162
 20
49.3057
 11
172.524
 21
49.1443
  0
LINE
  8
0
 10
172.524
 20
49.1443
 11
172.845
 21
48.911
  0
LINE
  8
0
 10
172.845
 20
48.911
 11
173.111
 21
48.616
  0
LINE
  8
0
 10
173.111
 20
48.616
 11
173.309
 21
48.2723
  0
LINE
  8
0
 10
173.309
 20
48.2723
 11
173.432
 21
47.8947
  0
LINE
  8
0
 10
173.432
 20
47.8947
 11
173.474
 21
47.5
  0
LINE
  8
0
 10
173.474
 20
47.5
 11
173.432
 21
47.1052
  0
LINE
  8
0
 10
173.432
 20
47.1052
 11
173.309
 21
46.7277
  0
LINE
  8
0
 10
173.309
 20
46.7277
 11
173.111
 21
46.384
  0
LINE
  8
0
 10
173.111
 20
46.384
 11
172.845
 21
46.089
  0
LINE
  8
0
 10
172.845
 20
46.089
 11
172.524
 21
45.8557
  0
LINE
  8
0
 10
172.524
 20
45.8557
 11
172.162
 21
45.6943
  0
LINE
  8
0
 10
172.162
 20
45.6943
 11
171.773
 21
45.6117
  0
LINE
  8
0
 10
171.773
 20
45.6117
 11
171.377
 21
45.6117
  0
LINE
  8
0
 10
457.127
 20
45.6117
 11
456.738
 21
45.6943
  0
LINE
  8
0
 10
456.738
 20
45.6943
 11
456.376
 21
45.8557
  0
LINE
  8
0
 10
456.376
 20
45.8557
 11
456.055
 21
46.089
  0
LINE
  8
0
 10
456.055
 20
46.089
 11
455.789
 21
46.384
  0
LINE
  8
0
 10
455.789
 20
46.384
 11
455.59
 21
46.7277
  0
LINE
  8
0
 10
455.59
 20
46.7277
 11
455.468
 21
47.1052
  0
LINE
  8
0
 10
455.468
 20
47.1052
 11
455.426
 21
47.5
  0
LINE
  8
0
 10
455.426
 20
47.5
 11
455.468
 21
47.8947
  0
LINE
  8
0
 10
455.468
 20
47.8947
 11
455.59
 21
48.2723
  0
LINE
  8
0
 10
455.59
 20
48.2723
 11
455.789
 21
48.616
  0
LINE
  8
0
 10
455.789
 20
48.616
 11
456.055
 21
48.911
  0
LINE
  8
0
 10
456.055
 20
48.911
 11
456.376
 21
49.1443
  0
LINE
  8
0
 10
456.376
 20
49.1443
 11
456.738
 21
49.3057
  0
LINE
  8
0
 10
456.738
 20
49.3057
 11
457.127
 21
49.3882
  0
LINE
  8
0
 10
457.127
 20
49.3882
 11
457.523
 21
49.3882
  0
LINE
  8
0
 10
457.523
 20
49.3882
 11
457.912
 21
49.3057
  0
LINE
  8
0
 10
457.912
 20
49.3057
 11
458.274
 21
49.1443
  0
LINE
  8
0
 10
458.274
 20
49.1443
 11
458.595
 21
48.911
  0
LINE
  8
0
 10
458.595
 20
48.911
 11
458.861
 21
48.616
  0
LINE
  8
0
 10
458.861
 20
48.616
 11
459.059
 21
48.2723
  0
LINE
  8
0
 10
459.059
 20
48.2723
 11
459.182
 21
47.8947
  0
LINE
  8
0
 10
459.182
 20
47.8947
 11
459.224
 21
47.5
  0
LINE
  8
0
 10
459.224
 20
47.5
 11
459.182
 21
47.1052
  0
LINE
  8
0
 10
459.182
 20
47.1052
 11
459.059
 21
46.7277
  0
LINE
  8
0
 10
459.059
 20
46.7277
 11
458.861
 21
46.384
  0
LINE
  8
0
 10
458.861
 20
46.384
 11
458.595
 21
46.089
  0
LINE
  8
0
 10
458.595
 20
46.089
 11
458.274
 21
45.8557
  0
LINE
  8
0
 10
458.274
 20
45.8557
 11
457.912
 21
45.6943
  0
LINE
  8
0
 10
457.912
 20
45.6943
 11
457.523
 21
45.6117
  0
LINE
  8
0
 10
457.523
 20
45.6117
 11
457.127
 21
45.6117
  0
ENDSEC
  0
SECTION
  2
OBJECTS
  0
DICTIONARY
  0
ENDSEC
  0
EOF
